<svg width="30" height="30" viewBox="0 0 30 30" fill="none" xmlns="http://www.w3.org/2000/svg">
<path d="M10.5817 26.7463H5.28577C4.73348 26.7463 4.28577 26.2986 4.28577 25.7463V16.2107C4.28577 15.956 4.38298 15.7108 4.55757 15.5253L14.4079 5.05936C14.8027 4.63984 15.4695 4.63984 15.8643 5.05936L25.5276 15.3266C25.7022 15.5121 25.7994 15.7572 25.7994 16.0119V25.7463C25.7994 26.2986 25.3517 26.7463 24.7994 26.7463H19.3164C18.7641 26.7463 18.3164 26.2986 18.3164 25.7463V20.3858C18.3164 20.3858 18.3164 17.4043 15.1361 17.4043C11.3946 17.4043 11.5817 20.3858 11.5817 20.3858V25.7463C11.5817 26.2986 11.134 26.7463 10.5817 26.7463Z" fill="black"/>
</svg>
