<svg width="30" height="30" viewBox="0 0 30 30" fill="none" xmlns="http://www.w3.org/2000/svg">
<path d="M9.44556 17.0887L12.3224 12.0255C12.3982 11.8921 12.5753 11.8581 12.6951 11.9539L15.7555 14.4022C15.8466 14.4751 15.976 14.4751 16.0671 14.4022L19.3951 11.7399C19.5069 11.6504 19.6567 11.7892 19.5761 11.9075L16.063 17.06C15.9812 17.1801 15.8145 17.2051 15.701 17.1143L12.6376 14.6636C12.5399 14.5854 12.3993 14.5917 12.309 14.6784L9.64039 17.2403C9.53662 17.3399 9.3745 17.2137 9.44556 17.0887Z" fill="black"/>
<path fill-rule="evenodd" clip-rule="evenodd" d="M3.21436 14.5335C3.21436 17.9005 4.68605 20.9231 7.01394 22.9939L6.61523 27.5512L11.2781 25.3768C12.3112 25.6867 13.4047 25.8526 14.5335 25.8526C20.7849 25.8526 25.8526 20.7849 25.8526 14.5335C25.8526 8.28211 20.7849 3.21436 14.5335 3.21436C8.28211 3.21436 3.21436 8.28211 3.21436 14.5335ZM11.1477 22.6852C11.4319 22.8034 11.7237 22.9071 12.022 22.9955C12.818 23.2314 13.661 23.3581 14.5335 23.3581C19.4072 23.3581 23.3581 19.4072 23.3581 14.5335C23.3581 9.65984 19.4072 5.70895 14.5335 5.70895C9.65984 5.70895 5.70895 9.65984 5.70895 14.5335C5.70895 17.1421 6.84084 19.4864 8.64029 21.1019C8.94721 21.3775 9.27356 21.6318 9.61703 21.8627L9.47691 23.4643L11.1477 22.6852Z" fill="black"/>
</svg>
